#N canvas 148 509 792 383 10;
#X obj -101 -78 gemwin;
#X msg 20 -108 0 \, destroy;
#X obj 76 20 bng 15 250 50 0 empty empty move_to_beginning_of_video
17 7 0 10 -262144 -1 -1;
#X obj -99 2 gemhead;
#X obj -9 -73 loadbang;
#X msg -91 -108 reset \, create \, 1;
#X floatatom 76 47 5 0 0 0 - - -;
#X msg 130 -109 \; pd dsp 1;
#X obj 346 -105 moocow/bytes2any;
#X obj 346 -134 mrpeach/tcpreceive 9002;
#X obj -99 56 pix_film;
#X obj -99 83 pix_texture;
#X obj 347 70 list prepend;
#X msg 416 46 open;
#X obj 347 97 list trim;
#X obj -87 26 r movie;
#X obj 347 125 s movie;
#X obj 347 40 t a b;
#X obj 346 -43 list-delete 8;
#X obj 346 -76 list prepend;
#X obj 347 14 list-dripslow;
#X obj 475 -90 bng 15 250 50 0 empty empty return_to_beginning_of_list
17 7 0 10 -262144 -1 -1;
#X obj 480 15 bng 15 250 50 0 empty empty load_next_video 17 7 0 10
-262144 -1 -1;
#X obj 478 -45 bng 15 250 50 0 empty empty finished_moving_through_list
17 7 0 10 -262144 -1 -1;
#X text 38 -8 frame rate multiplier (1.0 = 10fps);
#X obj 346 -14 t b l l;
#X obj 164 99 f;
#X obj 164 126 + 1;
#X obj 177 70 t b b;
#X floatatom 167 156 5 0 0 0 - - -;
#X obj 269 103 < 1;
#X obj 269 129 spigot;
#X text 267 161 how many times to repeat each video;
#X obj 229 161 mod 4;
#X msg -91 -155 reset \, dimen 1920 1080 \, offset 1920 0 \, border
0 \, fullscreen 1 \, create \, 1;
#X msg -100 -185 reset \, dimen 1920 1080 \, border 0 \, fullscreen
1 \, create \, 1;
#X obj -99 118 rectangle 7.12 4;
#X msg -22 -8 auto 0.1;
#X obj -76 153 rectangle 5.33 4;
#X text 27 152 letterboxed;
#X text 10 116 widescreen stretch;
#X text -92 -34 node: I save the videos as 1 fps so math is easy;
#X connect 1 0 0 0;
#X connect 2 0 6 0;
#X connect 3 0 10 0;
#X connect 4 0 37 0;
#X connect 4 0 7 0;
#X connect 4 0 35 0;
#X connect 4 0 26 0;
#X connect 5 0 0 0;
#X connect 6 0 10 1;
#X connect 8 0 19 0;
#X connect 9 0 8 0;
#X connect 10 0 11 0;
#X connect 10 2 28 0;
#X connect 11 0 38 0;
#X connect 12 0 14 0;
#X connect 13 0 12 1;
#X connect 14 0 16 0;
#X connect 15 0 10 0;
#X connect 17 0 12 0;
#X connect 17 1 13 0;
#X connect 18 0 25 0;
#X connect 19 0 18 0;
#X connect 20 0 17 0;
#X connect 20 1 23 0;
#X connect 21 0 19 0;
#X connect 22 0 20 0;
#X connect 23 0 21 0;
#X connect 25 0 20 0;
#X connect 25 1 20 1;
#X connect 25 2 19 1;
#X connect 26 0 27 0;
#X connect 27 0 33 0;
#X connect 28 0 2 0;
#X connect 28 1 26 0;
#X connect 30 0 31 0;
#X connect 30 0 31 1;
#X connect 31 0 20 0;
#X connect 33 0 26 1;
#X connect 33 0 29 0;
#X connect 33 0 30 0;
#X connect 34 0 0 0;
#X connect 35 0 0 0;
#X connect 37 0 10 0;
