#N canvas 1294 700 709 310 10;
#X obj -100 -131 gemwin;
#X msg 21 -161 0 \, destroy;
#X msg -100 -185 reset \, dimen 2560 1440 \, border 0 \, fullscreen
1 \, create \, 1;
#X obj -98 85 rectangle 5.33 4;
#X obj 77 -33 bng 15 250 50 0 empty empty move_to_beginning_of_video
17 7 0 10 -262144 -1 -1;
#X obj -98 58 rectangle 4 3;
#X obj -98 -51 gemhead;
#X obj -8 -126 loadbang;
#X msg -90 -161 reset \, create \, 1;
#X floatatom 77 -6 5 0 0 0 - - -;
#X msg 131 -162 \; pd dsp 1;
#X obj 264 -154 moocow/bytes2any;
#X obj 264 -184 mrpeach/tcpreceive 9002;
#X msg -21 -61 auto 0.1;
#X obj -98 3 pix_film;
#X obj -98 30 pix_texture;
#X obj 265 21 list prepend;
#X msg 334 -3 open;
#X obj 265 48 list trim;
#X obj -86 -27 r movie;
#X obj 265 76 s movie;
#X obj 265 -9 t a b;
#X obj 264 -92 list-delete 8;
#X obj 264 -125 list prepend;
#X obj 265 -35 list-dripslow;
#X obj 393 -139 bng 15 250 50 0 empty empty return_to_beginning_of_list
17 7 0 10 -262144 -1 -1;
#X obj 398 -34 bng 15 250 50 0 empty empty load_next_video 17 7 0 10
-262144 -1 -1;
#X obj 396 -94 bng 15 250 50 0 empty empty finished_moving_through_list
17 7 0 10 -262144 -1 -1;
#X obj 163 20 t b b;
#X text 39 -61 frame rate multiplier (1.0 = 10fps);
#X obj 264 -63 t b l l;
#X connect 1 0 0 0;
#X connect 2 0 0 0;
#X connect 4 0 9 0;
#X connect 6 0 14 0;
#X connect 7 0 13 0;
#X connect 7 0 10 0;
#X connect 7 0 8 0;
#X connect 8 0 0 0;
#X connect 9 0 14 1;
#X connect 11 0 23 0;
#X connect 12 0 11 0;
#X connect 13 0 14 0;
#X connect 14 0 15 0;
#X connect 14 2 28 0;
#X connect 15 0 5 0;
#X connect 16 0 18 0;
#X connect 17 0 16 1;
#X connect 18 0 20 0;
#X connect 19 0 14 0;
#X connect 21 0 16 0;
#X connect 21 1 17 0;
#X connect 22 0 30 0;
#X connect 23 0 22 0;
#X connect 24 0 21 0;
#X connect 24 1 27 0;
#X connect 25 0 23 0;
#X connect 26 0 24 0;
#X connect 27 0 25 0;
#X connect 28 0 4 0;
#X connect 28 1 24 0;
#X connect 30 0 24 0;
#X connect 30 1 24 1;
#X connect 30 2 23 1;
